<?xml version="1.0" encoding="utf-8"?>
<!-- Generated by IcoMoon.io -->
<!DOCTYPE svg PUBLIC "-//W3C//DTD SVG 1.1//EN" "http://www.w3.org/Graphics/SVG/1.1/DTD/svg11.dtd">
<svg version="1.1" xmlns="http://www.w3.org/2000/svg" xmlns:xlink="http://www.w3.org/1999/xlink" width="16" height="16" viewBox="0 0 16 16">
<g>
</g>
	<path d="M11.479 10.522l-2.206-2.522 2.206-2.522c0.375-0.375 0.375-0.983 0-1.358-0.375-0.374-0.983-0.374-1.358 0l-2.122 2.425-2.121-2.424c-0.375-0.375-0.983-0.375-1.358 0-0.374 0.375-0.374 0.983 0 1.358l2.206 2.521-2.206 2.522c-0.374 0.375-0.374 0.982 0 1.356 0.375 0.375 0.983 0.375 1.358 0l2.122-2.423 2.121 2.423c0.375 0.375 0.983 0.375 1.358 0s0.375-0.981 0.001-1.356z" fill="#666666" />
</svg>
