<?xml version="1.0" encoding="utf-8"?>
<!-- Generated by IcoMoon.io -->
<!DOCTYPE svg PUBLIC "-//W3C//DTD SVG 1.1//EN" "http://www.w3.org/Graphics/SVG/1.1/DTD/svg11.dtd">
<svg version="1.1" xmlns="http://www.w3.org/2000/svg" xmlns:xlink="http://www.w3.org/1999/xlink" width="16" height="16" viewBox="0 0 16 16">
<g>
</g>
	<path d="M11.485 6.803c-2.146 0-3.886 1.741-3.886 3.886 0 2.145 1.74 3.886 3.886 3.886 2.147 0 3.886-1.741 3.886-3.886 0-2.145-1.739-3.886-3.886-3.886zM14.099 11.387h-1.952v1.952h-1.325v-1.952h-1.952v-1.325h1.952v-1.952h1.325v1.952h1.952v1.325z" fill="#666666" />
	<path d="M14.929 3.8h-6.006c-0.244 0-0.581-0.052-0.754-0.224l-1.319-1.23c-0.172-0.172-0.51-0.312-0.754-0.312h-4.946c-0.244 0-0.442 0.198-0.442 0.442v9.715c0 0.244 0.198 0.442 0.442 0.442h5.888c-0.262-0.596-0.412-1.251-0.412-1.943 0-2.678 2.179-4.858 4.858-4.858 1.595 0 3 0.783 3.886 1.973v-3.563c0-0.244-0.198-0.442-0.442-0.442z" fill="#666666" />
</svg>
