<?xml version="1.0" encoding="utf-8"?>
<!-- Generated by IcoMoon.io -->
<!DOCTYPE svg PUBLIC "-//W3C//DTD SVG 1.1//EN" "http://www.w3.org/Graphics/SVG/1.1/DTD/svg11.dtd">
<svg version="1.1" xmlns="http://www.w3.org/2000/svg" xmlns:xlink="http://www.w3.org/1999/xlink" width="16" height="16" viewBox="0 0 16 16">
<g>
</g>
	<path d="M15.040 3.74h-5.008c-0.221 0-0.525-0.129-0.678-0.287l-0.644-0.665c-0.154-0.159-0.457-0.287-0.678-0.287h-4.292c-0.497 0-0.9 0.403-0.9 0.9v1.32h2.952c0.33 0 0.736 0.172 0.966 0.409l0.644 0.665c0.078 0.080 0.279 0.166 0.391 0.166h5.008c0.441 0 0.8 0.359 0.8 0.8v4.18h0.94c0.497 0 0.9-0.403 0.9-0.9v-5.9c0-0.221-0.179-0.4-0.4-0.4z" fill="#666666" />
	<path d="M12.8 6.36h-5.008c-0.221 0-0.525-0.129-0.678-0.287l-0.644-0.665c-0.154-0.159-0.457-0.287-0.678-0.287h-4.292c-0.497 0-0.9 0.403-0.9 0.9v6.64c0 0.497 0.403 0.9 0.9 0.9h10.8c0.497 0 0.9-0.403 0.9-0.9v-5.9c0-0.221-0.179-0.4-0.4-0.4z" fill="#666666" />
</svg>
