<?xml version="1.0" encoding="utf-8"?>
<!-- Generated by IcoMoon.io -->
<!DOCTYPE svg PUBLIC "-//W3C//DTD SVG 1.1//EN" "http://www.w3.org/Graphics/SVG/1.1/DTD/svg11.dtd">
<svg version="1.1" xmlns="http://www.w3.org/2000/svg" xmlns:xlink="http://www.w3.org/1999/xlink" width="16" height="16" viewBox="0 0 16 16">
<g>
</g>
	<path d="M7.902 0.641c-4.064 0.054-7.315 3.394-7.261 7.458 0.054 4.062 3.394 7.314 7.458 7.26 4.064-0.054 7.315-3.394 7.261-7.458-0.054-4.063-3.394-7.314-7.458-7.26zM8.718 3.094c0.748 0 0.969 0.434 0.969 0.93 0 0.62-0.497 1.194-1.344 1.194-0.709 0-1.046-0.357-1.026-0.946 0-0.497 0.416-1.178 1.401-1.178zM6.799 12.6c-0.511 0-0.886-0.31-0.528-1.675l0.586-2.419c0.102-0.388 0.118-0.543 0-0.543-0.153 0-0.817 0.268-1.21 0.532l-0.255-0.418c1.244-1.038 2.674-1.648 3.287-1.648 0.511 0 0.596 0.605 0.341 1.535l-0.672 2.544c-0.118 0.45-0.067 0.605 0.051 0.605 0.153 0 0.656-0.186 1.15-0.574l0.289 0.388c-1.209 1.209-2.528 1.674-3.040 1.674z" fill="#666666" />
</svg>
