<?xml version="1.0" encoding="utf-8"?>
<!-- Generated by IcoMoon.io -->
<!DOCTYPE svg PUBLIC "-//W3C//DTD SVG 1.1//EN" "http://www.w3.org/Graphics/SVG/1.1/DTD/svg11.dtd">
<svg version="1.1" xmlns="http://www.w3.org/2000/svg" xmlns:xlink="http://www.w3.org/1999/xlink" width="16" height="16" viewBox="0 0 16 16">
<g>
</g>
	<path d="M6.571 12.857q0 0.107-0.089 0.214l-2.848 2.848q-0.089 0.080-0.205 0.080-0.107 0-0.205-0.080l-2.857-2.857q-0.134-0.143-0.063-0.313 0.071-0.179 0.268-0.179h1.714v-12.286q0-0.125 0.080-0.205t0.205-0.080h1.714q0.125 0 0.205 0.080t0.080 0.205v12.286h1.714q0.125 0 0.205 0.080t0.080 0.205zM16 14v1.714q0 0.125-0.080 0.205t-0.205 0.080h-7.429q-0.125 0-0.205-0.080t-0.080-0.205v-1.714q0-0.125 0.080-0.205t0.205-0.080h7.429q0.125 0 0.205 0.080t0.080 0.205zM14.286 9.429v1.714q0 0.125-0.080 0.205t-0.205 0.080h-5.714q-0.125 0-0.205-0.080t-0.080-0.205v-1.714q0-0.125 0.080-0.205t0.205-0.080h5.714q0.125 0 0.205 0.080t0.080 0.205zM12.571 4.857v1.714q0 0.125-0.080 0.205t-0.205 0.080h-4q-0.125 0-0.205-0.080t-0.080-0.205v-1.714q0-0.125 0.080-0.205t0.205-0.080h4q0.125 0 0.205 0.080t0.080 0.205zM10.857 0.286v1.714q0 0.125-0.080 0.205t-0.205 0.080h-2.286q-0.125 0-0.205-0.080t-0.080-0.205v-1.714q0-0.125 0.080-0.205t0.205-0.080h2.286q0.125 0 0.205 0.080t0.080 0.205z" fill="#666666" />
</svg>
