<?xml version="1.0" encoding="utf-8"?>
<!-- Generated by IcoMoon.io -->
<!DOCTYPE svg PUBLIC "-//W3C//DTD SVG 1.1//EN" "http://www.w3.org/Graphics/SVG/1.1/DTD/svg11.dtd">
<svg version="1.1" xmlns="http://www.w3.org/2000/svg" xmlns:xlink="http://www.w3.org/1999/xlink" width="16" height="16" viewBox="0 0 16 16">
<g>
</g>
	<path d="M4 13c0 0.828 0.671 1.5 1.5 1.5h5c0.828 0 1.5-0.672 1.5-1.5l1-8h-10l1 8zM9.5 6.5h1v6.5h-1v-6.5zM7.5 6.5h1v6.5h-1v-6.5zM5.5 6.5h1v6.5h-1v-6.5zM12.75 3h-3.25c0 0-0.224-1-0.5-1h-2c-0.277 0-0.5 1-0.5 1h-3.25c-0.414 0-0.75 0.336-0.75 0.75s0 0.75 0 0.75h11c0 0 0-0.335 0-0.75s-0.336-0.75-0.75-0.75z" fill="#666666" />
</svg>
