<svg xmlns="http://www.w3.org/2000/svg" version="1.1" xmlns:xlink="http://www.w3.org/1999/xlink" width="512" height="512" x="0" y="0" viewBox="0 0 64 64" style="enable-background:new 0 0 512 512" xml:space="preserve" class=""><g transform="matrix(0.4999999999999998,0,0,0.4999999999999998,16.000000000000007,16.000000000000007)"><path d="M32 2a30 30 0 1 0 30 30A30.037 30.037 0 0 0 32 2zM7 40.97l5.14-5.15 1.57 1.57-5.15 5.14zm2.69 2.69 5.15-5.14 1.56 1.55-5.15 5.15zm2.69 2.69 5.15-5.15 1.56 1.57-5.14 5.14zm2.69 2.69 5.15-5.14 1.56 1.56-5.14 5.15zm2.7 2.69 5.14-5.14 1.57 1.56-5.15 5.15zm4.25 4.26-1.56-1.56 5.15-5.15 1.55 1.56zm6.27-6.28L13.27 34.69l2.13-2.13 15.02 15.02zM50.4 15.5 38.11 27.79a15.075 15.075 0 0 0-4.39 11.54l.21 3.61a2.437 2.437 0 0 1-.7 1.84l-1.68 1.68-15.02-15.03 1.68-1.67a2.373 2.373 0 0 1 1.84-.7l3.6.21a15.033 15.033 0 0 0 11.55-4.39l12.21-12.21a2.132 2.132 0 0 1 2.82-.22 2.057 2.057 0 0 1 .17 3.05z" fill="#ff4900" opacity="1" data-original="#000000" class=""></path></g></svg>