<?xml version="1.0" encoding="utf-8"?>
<!-- Generated by IcoMoon.io -->
<!DOCTYPE svg PUBLIC "-//W3C//DTD SVG 1.1//EN" "http://www.w3.org/Graphics/SVG/1.1/DTD/svg11.dtd">
<svg version="1.1" xmlns="http://www.w3.org/2000/svg" xmlns:xlink="http://www.w3.org/1999/xlink" width="16" height="16" viewBox="0 0 16 16">
<g>
</g>
	<path d="M11.714 7.973q0-1.438-0.777-2.634l-6.732 6.723q1.223 0.795 2.652 0.795 0.991 0 1.888-0.388t1.549-1.040 1.036-1.558 0.384-1.897zM2.795 10.643l6.741-6.732q-1.205-0.813-2.679-0.813-1.321 0-2.438 0.652t-1.768 1.777-0.652 2.446q0 1.446 0.795 2.67zM13.714 7.973q0 1.402-0.545 2.679t-1.46 2.196-2.188 1.464-2.665 0.545-2.665-0.545-2.188-1.464-1.46-2.196-0.545-2.679 0.545-2.674 1.46-2.192 2.188-1.464 2.665-0.545 2.665 0.545 2.188 1.464 1.46 2.192 0.545 2.674z" fill="#666666" />
</svg>
