<?xml version="1.0" encoding="utf-8"?>
<!-- Generated by IcoMoon.io -->
<!DOCTYPE svg PUBLIC "-//W3C//DTD SVG 1.1//EN" "http://www.w3.org/Graphics/SVG/1.1/DTD/svg11.dtd">
<svg version="1.1" xmlns="http://www.w3.org/2000/svg" xmlns:xlink="http://www.w3.org/1999/xlink" width="24" height="24" viewBox="0 0 24 24">
<g>
</g>
	<path d="M21 3h-2.25v0.75c0 0.827-0.673 1.5-1.5 1.5s-1.5-0.673-1.5-1.5v-0.75h-7.5v0.75c0 0.827-0.673 1.5-1.5 1.5s-1.5-0.673-1.5-1.5v-0.75h-2.25c-0.825 0-1.5 0.675-1.5 1.5v16.5c0 0.825 0.675 1.5 1.5 1.5h18c0.825 0 1.5-0.675 1.5-1.5v-16.5c0-0.825-0.675-1.5-1.5-1.5zM21 20.997c-0.001 0.001-0.002 0.002-0.003 0.003h-17.995c-0.001-0.001-0.002-0.002-0.003-0.003v-13.497h18v13.497zM6.75 4.5c0.414 0 0.75-0.336 0.75-0.75v-3c0-0.414-0.336-0.75-0.75-0.75s-0.75 0.336-0.75 0.75v3c0 0.414 0.336 0.75 0.75 0.75zM17.25 4.5c0.414 0 0.75-0.336 0.75-0.75v-3c0-0.414-0.336-0.75-0.75-0.75s-0.75 0.336-0.75 0.75v3c0 0.414 0.336 0.75 0.75 0.75zM13.5 9h-7.5v1.5h6v3h-6v1.5h6v3h-6v1.5h7.5zM16.5 19.5h1.5v-10.5h-3v1.5h1.5zM20.438 23.063h-16.875c-0.825 0-1.5-0.487-1.5-1.313v0.75c0 0.825 0.675 1.5 1.5 1.5h16.875c0.825 0 1.5-0.675 1.5-1.5v-0.75c0 0.825-0.675 1.313-1.5 1.313z" fill="#414141" />
</svg>
