<?xml version="1.0" encoding="utf-8"?>
<!-- Generated by IcoMoon.io -->
<!DOCTYPE svg PUBLIC "-//W3C//DTD SVG 1.1//EN" "http://www.w3.org/Graphics/SVG/1.1/DTD/svg11.dtd">
<svg version="1.1" xmlns="http://www.w3.org/2000/svg" xmlns:xlink="http://www.w3.org/1999/xlink" width="16" height="16" viewBox="0 0 16 16">
<g>
</g>
	<path d="M9.793 8.001l3.048 3.048c0.198 0.198 0.198 0.52 0 0.717l-1.075 1.075c-0.198 0.198-0.519 0.198-0.717 0l-3.049-3.048-3.049 3.048c-0.198 0.198-0.519 0.198-0.717 0l-1.076-1.075c-0.198-0.198-0.198-0.519 0-0.717l3.049-3.048-3.049-3.049c-0.198-0.198-0.198-0.519 0-0.718l1.076-1.075c0.198-0.198 0.519-0.198 0.717 0l3.048 3.048 3.048-3.049c0.198-0.198 0.519-0.198 0.717 0l1.075 1.076c0.198 0.198 0.198 0.519 0 0.718l-3.048 3.048z" fill="#666666" />
</svg>
