<?xml version="1.0" encoding="utf-8"?>
<!-- Generated by IcoMoon.io -->
<!DOCTYPE svg PUBLIC "-//W3C//DTD SVG 1.1//EN" "http://www.w3.org/Graphics/SVG/1.1/DTD/svg11.dtd">
<svg version="1.1" xmlns="http://www.w3.org/2000/svg" xmlns:xlink="http://www.w3.org/1999/xlink" width="16" height="16" viewBox="0 0 16 16">
<g>
</g>
	<path d="M16 2.453c0 1.882-5.050 6.29-5.994 8.174v3.895c0 0.011-0.006 0.018-0.007 0.028v0.45c0 0.552-0.448 1-0.999 1h-2c-0.552 0-1-0.448-1-1v-0.45c-0.001-0.011-0.008-0.018-0.008-0.030v-3.894c-0.941-1.883-5.992-6.291-5.992-8.174h0.015c-0.003-0.021-0.015-0.039-0.015-0.059 0-1.071 3.583-2.394 8-2.394s8 1.323 8 2.394c0 0.020-0.011 0.038-0.015 0.059h0.015zM8.085 0.992c-3.876 0-7.092 0.623-7.092 1.764 0 1.141 3.216 2.252 7.092 2.252 3.876 0 6.905-1.111 6.905-2.252-0.001-1.141-3.029-1.764-6.905-1.764z" fill="#666666" />
</svg>
