<?xml version="1.0" encoding="utf-8"?>
<!-- Generated by IcoMoon.io -->
<!DOCTYPE svg PUBLIC "-//W3C//DTD SVG 1.1//EN" "http://www.w3.org/Graphics/SVG/1.1/DTD/svg11.dtd">
<svg version="1.1" xmlns="http://www.w3.org/2000/svg" xmlns:xlink="http://www.w3.org/1999/xlink" width="9" height="16" viewBox="0 0 9 16">
<g>
</g>
	<path d="M9.143 9.714q0 0.232-0.17 0.402l-4 4q-0.17 0.17-0.402 0.17t-0.402-0.17l-4-4q-0.17-0.17-0.17-0.402t0.17-0.402 0.402-0.17h8q0.232 0 0.402 0.17t0.17 0.402zM9.143 6.286q0 0.232-0.17 0.402t-0.402 0.17h-8q-0.232 0-0.402-0.17t-0.17-0.402 0.17-0.402l4-4q0.17-0.17 0.402-0.17t0.402 0.17l4 4q0.17 0.17 0.17 0.402z" fill="#414141" />
</svg>
