<?xml version="1.0" encoding="utf-8"?>
<!-- Generated by IcoMoon.io -->
<!DOCTYPE svg PUBLIC "-//W3C//DTD SVG 1.1//EN" "http://www.w3.org/Graphics/SVG/1.1/DTD/svg11.dtd">
<svg version="1.1" xmlns="http://www.w3.org/2000/svg" xmlns:xlink="http://www.w3.org/1999/xlink" width="16" height="16" viewBox="0 0 16 16">
<g>
</g>
	<path d="M9.732 10.98c-0.345-0.055-0.353-1.005-0.353-1.005s1.015-1.005 1.236-2.356c0.595 0 0.963-1.437 0.368-1.942 0.025-0.532 0.765-4.177-2.982-4.177-3.747 0-3.007 3.645-2.982 4.177-0.595 0.505-0.228 1.942 0.368 1.942 0.221 1.351 1.236 2.356 1.236 2.356s-0.008 0.95-0.353 1.005c-1.113 0.177-5.268 2.010-5.268 4.020h14c0-2.010-4.155-3.843-5.268-4.020z" fill="#ffffff" />
</svg>
