<?xml version="1.0" encoding="utf-8"?>
<!-- Generated by IcoMoon.io -->
<!DOCTYPE svg PUBLIC "-//W3C//DTD SVG 1.1//EN" "http://www.w3.org/Graphics/SVG/1.1/DTD/svg11.dtd">
<svg version="1.1" xmlns="http://www.w3.org/2000/svg" xmlns:xlink="http://www.w3.org/1999/xlink" width="16" height="16" viewBox="0 0 16 16">
<g>
</g>
	<path d="M16 6.339v7.089q0 0.589-0.42 1.009t-1.009 0.42h-13.143q-0.589 0-1.009-0.42t-0.42-1.009v-7.089q0.393 0.438 0.902 0.777 3.232 2.196 4.438 3.080 0.509 0.375 0.826 0.585t0.844 0.429 0.982 0.219h0.018q0.455 0 0.982-0.219t0.844-0.429 0.826-0.585q1.518-1.098 4.446-3.080 0.509-0.348 0.893-0.777zM16 3.714q0 0.705-0.438 1.348t-1.089 1.098q-3.357 2.33-4.179 2.902-0.089 0.063-0.379 0.272t-0.482 0.339-0.464 0.29-0.513 0.241-0.446 0.080h-0.018q-0.205 0-0.446-0.080t-0.513-0.241-0.464-0.29-0.482-0.339-0.379-0.272q-0.813-0.571-2.339-1.629t-1.83-1.272q-0.554-0.375-1.045-1.031t-0.491-1.219q0-0.696 0.371-1.161t1.058-0.464h13.143q0.58 0 1.004 0.42t0.424 1.009z" fill="#ffffff" />
</svg>
