<?xml version="1.0" encoding="utf-8"?>
<!-- Generated by IcoMoon.io -->
<!DOCTYPE svg PUBLIC "-//W3C//DTD SVG 1.1//EN" "http://www.w3.org/Graphics/SVG/1.1/DTD/svg11.dtd">
<svg version="1.1" xmlns="http://www.w3.org/2000/svg" xmlns:xlink="http://www.w3.org/1999/xlink" width="16" height="16" viewBox="0 0 16 16">
<g>
</g>
	<path d="M11.484 12.584c-0.296-0.047-0.303-0.854-0.303-0.854s0.87-0.854 1.060-2.002c0.51 0 0.825-1.221 0.315-1.65 0.021-0.452 0.656-3.55-2.556-3.55-3.212 0-2.577 3.097-2.556 3.55-0.51 0.43-0.195 1.65 0.315 1.65 0.19 1.148 1.060 2.002 1.060 2.002s-0.007 0.807-0.303 0.854c-0.954 0.15-4.516 1.708-4.516 3.416h12c0-1.708-3.562-3.266-4.516-3.416zM5.376 12.856c0.689-0.424 1.525-0.817 2.212-1.053-0.246-0.351-0.52-0.827-0.693-1.392-0.241-0.196-0.437-0.477-0.562-0.822-0.126-0.345-0.174-0.732-0.135-1.089 0.028-0.256 0.101-0.495 0.213-0.705-0.068-0.728-0.116-2.157 0.819-3.199 0.363-0.404 0.821-0.695 1.37-0.87-0.098-1.012-0.612-2.2-2.601-2.2-3.212 0-2.577 3.097-2.556 3.55-0.51 0.43-0.195 1.65 0.315 1.65 0.19 1.148 1.060 2.002 1.060 2.002s-0.007 0.807-0.303 0.854c-0.954 0.151-4.516 1.708-4.516 3.416h5.15c0.074-0.048 0.149-0.096 0.226-0.144z" fill="#ffffff" />
</svg>
