<?xml version="1.0" encoding="utf-8"?>
<!-- Generated by IcoMoon.io -->
<!DOCTYPE svg PUBLIC "-//W3C//DTD SVG 1.1//EN" "http://www.w3.org/Graphics/SVG/1.1/DTD/svg11.dtd">
<svg version="1.1" xmlns="http://www.w3.org/2000/svg" xmlns:xlink="http://www.w3.org/1999/xlink" width="9" height="12" viewBox="0 0 9 12">
<g>
</g>
	<path d="M0.563 12h7.875c0.31 0 0.563-0.252 0.563-0.563v-7.875c0-0.006-0.003-0.012-0.003-0.018-0.001-0.009-0.003-0.016-0.005-0.024-0.006-0.027-0.017-0.051-0.034-0.072-0.003-0.003-0.002-0.007-0.005-0.011l-3-3.375c-0.001-0.001-0.003-0.001-0.004-0.002-0.022-0.024-0.051-0.041-0.084-0.050-0.007-0.002-0.013-0.003-0.021-0.004-0.011-0.002-0.021-0.006-0.032-0.006h-5.25c-0.31 0-0.563 0.252-0.563 0.563v10.875c0 0.31 0.252 0.563 0.563 0.563zM6 0.681l2.395 2.694h-2.208c-0.082 0-0.188-0.157-0.188-0.281v-2.413zM0.375 0.563c0-0.104 0.084-0.188 0.188-0.188h5.063v2.719c0 0.303 0.246 0.656 0.563 0.656h2.438v7.688c0 0.104-0.084 0.188-0.188 0.188h-7.875c-0.105 0-0.188-0.082-0.188-0.188v-10.875zM2.063 5.25h4.875c0.104 0 0.188-0.084 0.188-0.188s-0.084-0.188-0.188-0.188h-4.875c-0.103 0-0.188 0.084-0.188 0.188s0.084 0.188 0.188 0.188zM2.063 6.75h4.875c0.104 0 0.188-0.084 0.188-0.188s-0.084-0.188-0.188-0.188h-4.875c-0.103 0-0.188 0.084-0.188 0.188s0.084 0.188 0.188 0.188zM2.063 3.75h2.25c0.104 0 0.188-0.084 0.188-0.188s-0.084-0.188-0.188-0.188h-2.25c-0.103 0-0.188 0.084-0.188 0.188s0.084 0.188 0.188 0.188zM2.063 8.25h4.875c0.104 0 0.188-0.084 0.188-0.188s-0.084-0.188-0.188-0.188h-4.875c-0.103 0-0.188 0.084-0.188 0.188s0.084 0.188 0.188 0.188zM2.063 9.75h4.875c0.104 0 0.188-0.084 0.188-0.188s-0.084-0.188-0.188-0.188h-4.875c-0.103 0-0.188 0.084-0.188 0.188s0.084 0.188 0.188 0.188z" fill="#0088cc" />
</svg>
