<?xml version="1.0" encoding="utf-8"?>
<!-- Generated by IcoMoon.io -->
<!DOCTYPE svg PUBLIC "-//W3C//DTD SVG 1.1//EN" "http://www.w3.org/Graphics/SVG/1.1/DTD/svg11.dtd">
<svg version="1.1" xmlns="http://www.w3.org/2000/svg" xmlns:xlink="http://www.w3.org/1999/xlink" width="16" height="16" viewBox="0 0 16 16">
<g>
</g>
	<path d="M7 2v-0.25c0-0.413-0.338-0.75-0.75-0.75h-2.5c-0.413 0-0.75 0.337-0.75 0.75v0.25h-3v2h3v0.25c0 0.412 0.337 0.75 0.75 0.75h2.5c0.412 0 0.75-0.338 0.75-0.75v-0.25h9v-2h-9zM4 4v-2h2v2h-2zM13 6.75c0-0.412-0.338-0.75-0.75-0.75h-2.5c-0.412 0-0.75 0.338-0.75 0.75v0.25h-9v2h9v0.25c0 0.412 0.338 0.75 0.75 0.75h2.5c0.412 0 0.75-0.338 0.75-0.75v-0.25h3v-2h-3v-0.25zM10 9v-2h2v2h-2zM7 11.75c0-0.412-0.338-0.75-0.75-0.75h-2.5c-0.413 0-0.75 0.338-0.75 0.75v0.25h-3v2h3v0.25c0 0.412 0.337 0.75 0.75 0.75h2.5c0.412 0 0.75-0.338 0.75-0.75v-0.25h9v-2h-9v-0.25zM4 14v-2h2v2h-2z" fill="#ffffff" />
</svg>
