<?xml version="1.0" encoding="utf-8"?>
<!-- Generated by IcoMoon.io -->
<!DOCTYPE svg PUBLIC "-//W3C//DTD SVG 1.1//EN" "http://www.w3.org/Graphics/SVG/1.1/DTD/svg11.dtd">
<svg version="1.1" xmlns="http://www.w3.org/2000/svg" xmlns:xlink="http://www.w3.org/1999/xlink" width="16" height="16" viewBox="0 0 16 16">
<g>
</g>
	<path d="M7.77 3.227c-0.987 0.987-0.757 2.27-1.087 3.52l-5.533-5.587c-0.12-0.127-0.293-0.207-0.483-0.207-0.367 0-0.667 0.297-0.667 0.667v0.227c0 2.010 0.867 5.73 3.574 8.71l-3.187 3.184c-0.517 0.516-0.517 1.356 0 1.873 0.517 0.517 1.357 0.517 1.87 0l3.177-3.18 1.9 1.9 1.64-1.49 2.77 2.77c0.513 0.517 1.353 0.517 1.87 0 0.517-0.517 0.517-1.357 0-1.873l-4.384-4.42c1.264-0.347 2.557-0.103 3.544-1.090l2.98-2.98c0.33-0.327 0.33-0.86 0-1.19-0.33-0.33-0.863-0.33-1.19 0l-2.623 2.62c-0.197 0.197-0.517 0.197-0.714 0-0.2-0.197-0.2-0.517 0-0.713l2.62-2.623c0.33-0.327 0.33-0.86 0-1.19-0.33-0.33-0.863-0.33-1.19 0l-2.623 2.62c-0.197 0.2-0.517 0.2-0.713 0-0.197-0.197-0.197-0.517 0-0.713l2.62-2.623c0.33-0.327 0.33-0.86 0-1.19s-0.863-0.33-1.19 0l-2.98 2.98z" fill="#ffffff" />
</svg>
