<?xml version="1.0" encoding="utf-8"?>
<!-- Generated by IcoMoon.io -->
<!DOCTYPE svg PUBLIC "-//W3C//DTD SVG 1.1//EN" "http://www.w3.org/Graphics/SVG/1.1/DTD/svg11.dtd">
<svg version="1.1" xmlns="http://www.w3.org/2000/svg" xmlns:xlink="http://www.w3.org/1999/xlink" width="16" height="16" viewBox="0 0 16 16">
<g>
</g>
	<path d="M3.429 10.286q0-0.473-0.335-0.808t-0.808-0.335-0.808 0.335-0.335 0.808 0.335 0.808 0.808 0.335 0.808-0.335 0.335-0.808zM5.143 6.286q0-0.473-0.335-0.808t-0.808-0.335-0.808 0.335-0.335 0.808 0.335 0.808 0.808 0.335 0.808-0.335 0.335-0.808zM8.964 10.58l0.902-3.411q0.054-0.232-0.067-0.433t-0.344-0.263-0.429 0.058-0.268 0.353l-0.902 3.411q-0.536 0.045-0.955 0.388t-0.563 0.879q-0.179 0.688 0.179 1.304t1.045 0.795 1.304-0.179 0.795-1.045q0.143-0.536-0.054-1.045t-0.643-0.813zM14.857 10.286q0-0.473-0.335-0.808t-0.808-0.335-0.808 0.335-0.335 0.808 0.335 0.808 0.808 0.335 0.808-0.335 0.335-0.808zM9.143 4.571q0-0.473-0.335-0.808t-0.808-0.335-0.808 0.335-0.335 0.808 0.335 0.808 0.808 0.335 0.808-0.335 0.335-0.808zM13.143 6.286q0-0.473-0.335-0.808t-0.808-0.335-0.808 0.335-0.335 0.808 0.335 0.808 0.808 0.335 0.808-0.335 0.335-0.808zM16 10.286q0 2.33-1.259 4.313-0.17 0.259-0.482 0.259h-12.518q-0.313 0-0.482-0.259-1.259-1.973-1.259-4.313 0-1.625 0.634-3.107t1.705-2.554 2.554-1.705 3.107-0.634 3.107 0.634 2.554 1.705 1.705 2.554 0.634 3.107z" fill="#ffffff" />
</svg>
