<?xml version="1.0" encoding="utf-8"?>
<!-- Generated by IcoMoon.io -->
<!DOCTYPE svg PUBLIC "-//W3C//DTD SVG 1.1//EN" "http://www.w3.org/Graphics/SVG/1.1/DTD/svg11.dtd">
<svg version="1.1" xmlns="http://www.w3.org/2000/svg" xmlns:xlink="http://www.w3.org/1999/xlink" width="13" height="16" viewBox="0 0 13 16">
<g>
</g>
	<path d="M3.429 11.714v0.571q0 0.116-0.085 0.201t-0.201 0.085h-0.571q-0.116 0-0.201-0.085t-0.085-0.201v-0.571q0-0.116 0.085-0.201t0.201-0.085h0.571q0.116 0 0.201 0.085t0.085 0.201zM3.429 9.429v0.571q0 0.116-0.085 0.201t-0.201 0.085h-0.571q-0.116 0-0.201-0.085t-0.085-0.201v-0.571q0-0.116 0.085-0.201t0.201-0.085h0.571q0.116 0 0.201 0.085t0.085 0.201zM5.714 9.429v0.571q0 0.116-0.085 0.201t-0.201 0.085h-0.571q-0.116 0-0.201-0.085t-0.085-0.201v-0.571q0-0.116 0.085-0.201t0.201-0.085h0.571q0.116 0 0.201 0.085t0.085 0.201zM3.429 7.143v0.571q0 0.116-0.085 0.201t-0.201 0.085h-0.571q-0.116 0-0.201-0.085t-0.085-0.201v-0.571q0-0.116 0.085-0.201t0.201-0.085h0.571q0.116 0 0.201 0.085t0.085 0.201zM10.286 11.714v0.571q0 0.116-0.085 0.201t-0.201 0.085h-0.571q-0.116 0-0.201-0.085t-0.085-0.201v-0.571q0-0.116 0.085-0.201t0.201-0.085h0.571q0.116 0 0.201 0.085t0.085 0.201zM8 9.429v0.571q0 0.116-0.085 0.201t-0.201 0.085h-0.571q-0.116 0-0.201-0.085t-0.085-0.201v-0.571q0-0.116 0.085-0.201t0.201-0.085h0.571q0.116 0 0.201 0.085t0.085 0.201zM5.714 7.143v0.571q0 0.116-0.085 0.201t-0.201 0.085h-0.571q-0.116 0-0.201-0.085t-0.085-0.201v-0.571q0-0.116 0.085-0.201t0.201-0.085h0.571q0.116 0 0.201 0.085t0.085 0.201zM3.429 4.857v0.571q0 0.116-0.085 0.201t-0.201 0.085h-0.571q-0.116 0-0.201-0.085t-0.085-0.201v-0.571q0-0.116 0.085-0.201t0.201-0.085h0.571q0.116 0 0.201 0.085t0.085 0.201zM10.286 9.429v0.571q0 0.116-0.085 0.201t-0.201 0.085h-0.571q-0.116 0-0.201-0.085t-0.085-0.201v-0.571q0-0.116 0.085-0.201t0.201-0.085h0.571q0.116 0 0.201 0.085t0.085 0.201zM8 7.143v0.571q0 0.116-0.085 0.201t-0.201 0.085h-0.571q-0.116 0-0.201-0.085t-0.085-0.201v-0.571q0-0.116 0.085-0.201t0.201-0.085h0.571q0.116 0 0.201 0.085t0.085 0.201zM5.714 4.857v0.571q0 0.116-0.085 0.201t-0.201 0.085h-0.571q-0.116 0-0.201-0.085t-0.085-0.201v-0.571q0-0.116 0.085-0.201t0.201-0.085h0.571q0.116 0 0.201 0.085t0.085 0.201zM3.429 2.571v0.571q0 0.116-0.085 0.201t-0.201 0.085h-0.571q-0.116 0-0.201-0.085t-0.085-0.201v-0.571q0-0.116 0.085-0.201t0.201-0.085h0.571q0.116 0 0.201 0.085t0.085 0.201zM10.286 7.143v0.571q0 0.116-0.085 0.201t-0.201 0.085h-0.571q-0.116 0-0.201-0.085t-0.085-0.201v-0.571q0-0.116 0.085-0.201t0.201-0.085h0.571q0.116 0 0.201 0.085t0.085 0.201zM8 4.857v0.571q0 0.116-0.085 0.201t-0.201 0.085h-0.571q-0.116 0-0.201-0.085t-0.085-0.201v-0.571q0-0.116 0.085-0.201t0.201-0.085h0.571q0.116 0 0.201 0.085t0.085 0.201zM5.714 2.571v0.571q0 0.116-0.085 0.201t-0.201 0.085h-0.571q-0.116 0-0.201-0.085t-0.085-0.201v-0.571q0-0.116 0.085-0.201t0.201-0.085h0.571q0.116 0 0.201 0.085t0.085 0.201zM10.286 4.857v0.571q0 0.116-0.085 0.201t-0.201 0.085h-0.571q-0.116 0-0.201-0.085t-0.085-0.201v-0.571q0-0.116 0.085-0.201t0.201-0.085h0.571q0.116 0 0.201 0.085t0.085 0.201zM8 2.571v0.571q0 0.116-0.085 0.201t-0.201 0.085h-0.571q-0.116 0-0.201-0.085t-0.085-0.201v-0.571q0-0.116 0.085-0.201t0.201-0.085h0.571q0.116 0 0.201 0.085t0.085 0.201zM10.286 2.571v0.571q0 0.116-0.085 0.201t-0.201 0.085h-0.571q-0.116 0-0.201-0.085t-0.085-0.201v-0.571q0-0.116 0.085-0.201t0.201-0.085h0.571q0.116 0 0.201 0.085t0.085 0.201zM8 14.857h3.429v-13.714h-10.286v13.714h3.429v-2q0-0.116 0.085-0.201t0.201-0.085h2.857q0.116 0 0.201 0.085t0.085 0.201v2zM12.571 0.571v14.857q0 0.232-0.17 0.402t-0.402 0.17h-11.429q-0.232 0-0.402-0.17t-0.17-0.402v-14.857q0-0.232 0.17-0.402t0.402-0.17h11.429q0.232 0 0.402 0.17t0.17 0.402z" fill="#ffffff" />
</svg>
