<?xml version="1.0" encoding="utf-8"?>
<!-- Generated by IcoMoon.io -->
<!DOCTYPE svg PUBLIC "-//W3C//DTD SVG 1.1//EN" "http://www.w3.org/Graphics/SVG/1.1/DTD/svg11.dtd">
<svg version="1.1" xmlns="http://www.w3.org/2000/svg" xmlns:xlink="http://www.w3.org/1999/xlink" width="15" height="16" viewBox="0 0 15 16">
<g>
</g>
	<path d="M7.571 15.143q0-0.143-0.143-0.143-0.527 0-0.906-0.379t-0.379-0.906q0-0.143-0.143-0.143t-0.143 0.143q0 0.652 0.46 1.112t1.112 0.46q0.143 0 0.143-0.143zM14.857 12.571q0 0.464-0.339 0.804t-0.804 0.339h-4q0 0.946-0.67 1.616t-1.616 0.67-1.616-0.67-0.67-1.616h-4q-0.464 0-0.804-0.339t-0.339-0.804q1.696-1.438 2.563-3.549t0.866-4.451q0-1.473 0.857-2.339t2.357-1.045q-0.071-0.161-0.071-0.33 0-0.357 0.25-0.607t0.607-0.25 0.607 0.25 0.25 0.607q0 0.17-0.071 0.33 1.5 0.179 2.357 1.045t0.857 2.339q0 2.339 0.866 4.451t2.563 3.549z" fill="#ffffff" />
</svg>
