<?xml version="1.0" encoding="utf-8"?>
<!-- Generated by IcoMoon.io -->
<!DOCTYPE svg PUBLIC "-//W3C//DTD SVG 1.1//EN" "http://www.w3.org/Graphics/SVG/1.1/DTD/svg11.dtd">
<svg version="1.1" xmlns="http://www.w3.org/2000/svg" xmlns:xlink="http://www.w3.org/1999/xlink" width="16" height="16" viewBox="0 0 16 16">
<g>
</g>
	<path d="M14.5 2h-13c-0.825 0-1.5 0.675-1.5 1.5v9c0 0.825 0.675 1.5 1.5 1.5h13c0.825 0 1.5-0.675 1.5-1.5v-9c0-0.825-0.675-1.5-1.5-1.5zM1.5 3h13c0.271 0 0.5 0.229 0.5 0.5v1.5h-14v-1.5c0-0.271 0.229-0.5 0.5-0.5zM14.5 13h-13c-0.271 0-0.5-0.229-0.5-0.5v-4.5h14v4.5c0 0.271-0.229 0.5-0.5 0.5zM2 10h1v2h-1zM4 10h1v2h-1zM6 10h1v2h-1z" fill="#ffffff" />
</svg>
