<?xml version="1.0" encoding="utf-8"?>
<!-- Generated by IcoMoon.io -->
<!DOCTYPE svg PUBLIC "-//W3C//DTD SVG 1.1//EN" "http://www.w3.org/Graphics/SVG/1.1/DTD/svg11.dtd">
<svg version="1.1" xmlns="http://www.w3.org/2000/svg" xmlns:xlink="http://www.w3.org/1999/xlink" width="20" height="20" viewBox="0 0 20 20">
<g>
</g>
	<path d="M18.684 11.398l-3.148-7.492c-0.248-0.5-0.908-0.909-1.467-0.909h-2.049l0.38 4.065h2.7l-5.1 4.23-5.1-4.23h2.7l0.38-4.064h-2.048c-0.558 0-1.218 0.409-1.467 0.909l-3.148 7.492c-0.25 0.5-0.378 1.36-0.287 1.912l0.68 3.686c0.092 0.551 0.623 1.002 1.181 1.002h14.219c0.559 0 1.090-0.451 1.182-1.002l0.68-3.686c0.090-0.552-0.038-1.413-0.288-1.913zM17.32 14.024l-0.258 1.502c-0.078 0.577-0.598 1.049-1.154 1.049h-11.816c-0.557 0-1.077-0.472-1.154-1.049l-0.259-1.502c-0.077-0.577 0.316-1.049 0.873-1.049h12.896c0.558 0.001 0.95 0.472 0.872 1.049z" fill="#666666" />
</svg>
