<?xml version="1.0" encoding="utf-8"?>
<!-- Generated by IcoMoon.io -->
<!DOCTYPE svg PUBLIC "-//W3C//DTD SVG 1.1//EN" "http://www.w3.org/Graphics/SVG/1.1/DTD/svg11.dtd">
<svg version="1.1" xmlns="http://www.w3.org/2000/svg" xmlns:xlink="http://www.w3.org/1999/xlink" width="16" height="16" viewBox="0 0 16 16">
<g>
</g>
	<path d="M14.947 9.118l-2.518-5.994c-0.198-0.4-0.726-0.727-1.174-0.727h-1.639l0.304 3.252h2.16l-4.080 3.384-4.080-3.384h2.16l0.304-3.251h-1.638c-0.446 0-0.974 0.327-1.174 0.727l-2.518 5.994c-0.2 0.4-0.302 1.088-0.23 1.53l0.544 2.949c0.074 0.441 0.498 0.802 0.945 0.802h11.375c0.447 0 0.872-0.361 0.946-0.802l0.544-2.949c0.072-0.442-0.030-1.13-0.23-1.53zM13.856 11.219l-0.206 1.202c-0.062 0.462-0.478 0.839-0.923 0.839h-9.453c-0.446 0-0.862-0.378-0.923-0.839l-0.207-1.202c-0.062-0.462 0.253-0.839 0.698-0.839h10.317c0.446 0.001 0.76 0.378 0.698 0.839z" fill="#0088cc" />
</svg>
