<?xml version="1.0" encoding="utf-8"?>
<!-- Generated by IcoMoon.io -->
<!DOCTYPE svg PUBLIC "-//W3C//DTD SVG 1.1//EN" "http://www.w3.org/Graphics/SVG/1.1/DTD/svg11.dtd">
<svg version="1.1" xmlns="http://www.w3.org/2000/svg" xmlns:xlink="http://www.w3.org/1999/xlink" width="24" height="24" viewBox="0 0 24 24">
<g>
</g>
	<path d="M18 24.031h-13.5c-0.829 0-1.5-0.67-1.5-1.497v-18.073c0-0.827 0.671-1.496 1.5-1.496h3.75v1.559h-3c-0.414 0-0.75 0.335-0.75 0.748v16.513c0 0.415 0.336 0.748 0.75 0.748h12c0.415 0 0.75-0.334 0.75-0.748v-16.513c0-0.414-0.335-0.748-0.75-0.748h-3v-1.559h3.75c0.828 0 1.5 0.67 1.5 1.496v18.073c0 0.827-0.672 1.497-1.5 1.497zM8.25 9.014h8.25v0.748h-8.25v-0.748zM8.25 11.26h8.25v0.748h-8.25v-0.748zM8.25 13.506h8.25v0.748h-8.25v-0.748zM8.25 15.752h8.25v0.748h-8.25v-0.748zM16.5 20.989h-8.25v-0.747h8.25v0.747zM8.25 17.997h8.25v0.748h-8.25v-0.748zM6 8.999h0.75v0.748h-0.75v-0.748zM6 11.245h0.75v0.748h-0.75v-0.748zM6 13.489h0.75v0.749h-0.75v-0.749zM6 15.735h0.75v0.748h-0.75v-0.748zM6.75 20.975h-0.75v-0.748h0.75v0.748zM6 17.981h0.75v0.748h-0.75v-0.748zM15.75 5.318c0.415 0 0.75 0.335 0.75 0.749 0 0.413 0 1.45 0 1.45h-10.5c0 0 0-1.036 0-1.45 0-0.414 0.335-0.749 0.75-0.749h2.25c0 0 0.009-1.064 0.009-2.281 0-1.263 0.975-2.319 2.241-2.319s2.275 1.11 2.275 2.326c0 1.31-0.025 2.273-0.025 2.273h2.25zM11.25 2.965c-0.415 0-0.75 0.334-0.75 0.748 0 0.414 0.335 0.748 0.75 0.748s0.75-0.335 0.75-0.748c0-0.413-0.335-0.748-0.75-0.748z" fill="#414141" />
</svg>
