<?xml version="1.0" encoding="utf-8"?>
<!-- Generated by IcoMoon.io -->
<!DOCTYPE svg PUBLIC "-//W3C//DTD SVG 1.1//EN" "http://www.w3.org/Graphics/SVG/1.1/DTD/svg11.dtd">
<svg version="1.1" xmlns="http://www.w3.org/2000/svg" xmlns:xlink="http://www.w3.org/1999/xlink" width="24" height="24" viewBox="0 0 24 24">
<g>
</g>
	<path d="M22.793 9.51l-2.298-0.461c-0.116-0.332-0.252-0.655-0.403-0.967l1.302-1.953c0.397-0.595 0.318-1.388-0.188-1.892l-1.443-1.443c-0.29-0.29-0.674-0.439-1.062-0.439-0.287 0-0.577 0.083-0.83 0.252l-1.953 1.301c-0.313-0.151-0.636-0.286-0.968-0.402l-0.461-2.299c-0.139-0.702-0.756-1.206-1.471-1.206h-2.040c-0.715 0-1.33 0.505-1.471 1.206l-0.461 2.299c-0.332 0.115-0.655 0.251-0.967 0.402l-1.952-1.301c-0.254-0.169-0.544-0.252-0.832-0.252-0.388 0-0.771 0.149-1.061 0.439l-1.442 1.443c-0.505 0.506-0.584 1.298-0.188 1.892l1.301 1.953c-0.151 0.313-0.286 0.635-0.402 0.968l-2.3 0.46c-0.701 0.14-1.206 0.756-1.206 1.471v2.040c0 0.715 0.505 1.331 1.206 1.471l2.299 0.461c0.115 0.332 0.251 0.655 0.402 0.967l-1.3 1.953c-0.397 0.595-0.318 1.388 0.188 1.892l1.443 1.443c0.29 0.29 0.673 0.439 1.061 0.439 0.288 0 0.578-0.083 0.831-0.252l1.953-1.302c0.313 0.152 0.635 0.287 0.967 0.403l0.46 2.298c0.14 0.702 0.756 1.207 1.471 1.207h2.040c0.715 0 1.331-0.506 1.471-1.207l0.461-2.298c0.332-0.116 0.655-0.252 0.967-0.403l1.953 1.302c0.253 0.169 0.544 0.252 0.83 0.252 0.389 0 0.772-0.149 1.062-0.439l1.443-1.443c0.506-0.505 0.584-1.297 0.188-1.892l-1.302-1.953c0.152-0.313 0.287-0.636 0.403-0.968l2.298-0.46c0.701-0.139 1.207-0.756 1.207-1.471v-2.040c0-0.715-0.505-1.33-1.207-1.471zM20.201 13.481c-0.521 0.104-0.948 0.476-1.122 0.979-0.097 0.277-0.209 0.545-0.335 0.806-0.233 0.479-0.194 1.045 0.101 1.486l1.302 1.953-1.443 1.443-1.953-1.302c-0.25-0.167-0.541-0.252-0.832-0.252-0.223 0-0.447 0.049-0.653 0.149-0.261 0.126-0.529 0.24-0.807 0.337-0.501 0.174-0.873 0.601-0.977 1.122l-0.461 2.299h-2.040l-0.46-2.299c-0.104-0.521-0.476-0.948-0.978-1.122-0.277-0.097-0.546-0.209-0.806-0.335-0.207-0.101-0.431-0.151-0.654-0.151-0.292 0-0.581 0.085-0.832 0.252l-1.953 1.302-1.443-1.443 1.301-1.953c0.295-0.442 0.333-1.008 0.103-1.485-0.126-0.261-0.239-0.529-0.336-0.807-0.174-0.501-0.601-0.873-1.122-0.977l-2.299-0.461-0.001-2.041 2.3-0.46c0.521-0.104 0.948-0.476 1.122-0.978 0.097-0.277 0.209-0.546 0.335-0.806 0.232-0.479 0.194-1.044-0.102-1.486l-1.3-1.953 1.442-1.443 1.953 1.301c0.25 0.167 0.541 0.252 0.832 0.252 0.223 0 0.446-0.050 0.653-0.149 0.26-0.126 0.529-0.239 0.806-0.336 0.502-0.174 0.874-0.602 0.978-1.122l0.461-2.299 2.040-0.001 0.46 2.3c0.104 0.52 0.476 0.948 0.979 1.122 0.277 0.097 0.545 0.209 0.806 0.335 0.208 0.101 0.431 0.15 0.655 0.15 0.292 0 0.581-0.085 0.832-0.252l1.953-1.301 1.443 1.443-1.302 1.953c-0.295 0.442-0.332 1.007-0.103 1.485 0.126 0.26 0.24 0.529 0.337 0.806 0.174 0.502 0.601 0.874 1.122 0.978l2.298 0.461 0.002 2.040-2.299 0.46zM12 6.751c-2.899 0-5.25 2.351-5.25 5.25 0 2.899 2.351 5.25 5.25 5.25s5.25-2.351 5.25-5.25c0-2.899-2.351-5.25-5.25-5.25zM12 16.595c-2.537 0-4.594-2.058-4.594-4.594 0-2.537 2.057-4.594 4.594-4.594 2.536 0 4.594 2.057 4.594 4.594 0 2.536-2.058 4.594-4.594 4.594zM12 9.001c-1.658 0-3 1.343-3 3 0 1.657 1.342 3 3 3 1.657 0 3-1.343 3-3 0-1.657-1.343-3-3-3zM12 14.252c-1.242 0-2.25-1.008-2.25-2.25 0-1.242 1.008-2.25 2.25-2.25s2.25 1.008 2.25 2.25c0 1.242-1.008 2.25-2.25 2.25z" fill="#666666" />
</svg>
