<?xml version="1.0" encoding="utf-8"?>
<!-- Generated by IcoMoon.io -->
<!DOCTYPE svg PUBLIC "-//W3C//DTD SVG 1.1//EN" "http://www.w3.org/Graphics/SVG/1.1/DTD/svg11.dtd">
<svg version="1.1" xmlns="http://www.w3.org/2000/svg" xmlns:xlink="http://www.w3.org/1999/xlink" width="13" height="14" viewBox="0 0 13 14">
<g>
</g>
	<path d="M8.883 7.844l2.391-2.32-3.297-0.484-1.477-2.984-1.477 2.984-3.297 0.484 2.391 2.32-0.57 3.289 2.953-1.555 2.945 1.555zM13 5.055q0 0.172-0.203 0.375l-2.836 2.766 0.672 3.906q0.008 0.055 0.008 0.156 0 0.391-0.32 0.391-0.148 0-0.312-0.094l-3.508-1.844-3.508 1.844q-0.172 0.094-0.312 0.094-0.164 0-0.246-0.113t-0.082-0.277q0-0.047 0.016-0.156l0.672-3.906-2.844-2.766q-0.195-0.211-0.195-0.375 0-0.289 0.438-0.359l3.922-0.57 1.758-3.555q0.148-0.32 0.383-0.32t0.383 0.32l1.758 3.555 3.922 0.57q0.438 0.070 0.438 0.359z" fill="#666666" />
</svg>
