<?xml version="1.0" encoding="utf-8"?>
<!-- Generated by IcoMoon.io -->
<!DOCTYPE svg PUBLIC "-//W3C//DTD SVG 1.1//EN" "http://www.w3.org/Graphics/SVG/1.1/DTD/svg11.dtd">
<svg version="1.1" xmlns="http://www.w3.org/2000/svg" xmlns:xlink="http://www.w3.org/1999/xlink" width="16" height="16" viewBox="0 0 16 16">
<g>
</g>
	<path d="M8 3c-4.418 0-8 5-8 5s3.582 5 8 5 8-5 8-5-3.582-5-8-5zM8 11c-1.657 0-3-1.344-3-3s1.343-3 3-3 3 1.343 3 3-1.344 3-3 3zM8 6c-1.104 0-2 0.896-2 2s0.896 2 2 2 2-0.896 2-2-0.896-2-2-2z" fill="#666666" />
</svg>
