<?xml version="1.0" encoding="utf-8"?>
<!-- Generator: Adobe Illustrator 17.1.0, SVG Export Plug-In . SVG Version: 6.00 Build 0)  -->
<!DOCTYPE svg PUBLIC "-//W3C//DTD SVG 1.1//EN" "http://www.w3.org/Graphics/SVG/1.1/DTD/svg11.dtd">
<svg version="1.1" id="Layer_1" xmlns="http://www.w3.org/2000/svg" xmlns:xlink="http://www.w3.org/1999/xlink" x="0px" y="0px"
	 viewBox="298 388 16 16" enable-background="new 298 388 16 16" xml:space="preserve">
<path fill="#666666" d="M298.3,392.4h15.4l-1,10.3h-13.5L298.3,392.4z M312.3,390.3l0.5,1h-13.5l1-2h5.3l0.5,1H312.3z"/>
<path fill="#FFFFFF" d="M308.3,397.7h-1.7v-1.6c0-0.1-0.1-0.2-0.2-0.2h-1c-0.1,0-0.2,0.1-0.2,0.2v1.6h-1.7c-0.1,0-0.2,0.1-0.2,0.2
	v0.8c0,0.1,0.1,0.2,0.2,0.2h1.7v1.6c0,0.1,0.1,0.2,0.2,0.2h1c0.1,0,0.2-0.1,0.2-0.2v-1.6h1.7c0.1,0,0.2-0.1,0.2-0.2v-0.8
	C308.5,397.7,308.4,397.7,308.3,397.7z"/>
</svg>
